<mxfile modified="2022-05-02T00:48:37.731Z" host="app.diagrams.net" agent="5.0 (Windows NT 10.0; Win64; x64) AppleWebKit/537.36 (KHTML, like Gecko) Chrome/100.0.4896.127 Safari/537.36 Edg/100.0.1185.50" etag="hqA0gmwYyDqJuDkCAVYP" compressed="false" version="17.5.0" type="google">
  <diagram id="lW3KiSqqH5KFbNpJXfio" name="User Context/Users &amp; Groups">
    <mxGraphModel grid="1" page="1" gridSize="10" guides="1" tooltips="1" connect="1" arrows="1" fold="1" pageScale="1" pageWidth="827" pageHeight="1169" math="0" shadow="0">
      <root>
        <mxCell id="A8SzTBLCwIyWwOwGxgO3-0" />
        <mxCell id="A8SzTBLCwIyWwOwGxgO3-1" value="Diagram" parent="A8SzTBLCwIyWwOwGxgO3-0" />
        <mxCell id="Lps9gQ7iExdD5h6dAtAG-41" value="School" style="ellipse;whiteSpace=wrap;html=1;rounded=0;verticalAlign=top;collapsible=0;container=1;recursiveResize=0;" vertex="1" parent="A8SzTBLCwIyWwOwGxgO3-1">
          <mxGeometry x="480" y="480" width="190" height="180" as="geometry" />
        </mxCell>
        <mxCell id="Lps9gQ7iExdD5h6dAtAG-42" value="Physical Classroom" style="ellipse;whiteSpace=wrap;html=1;rounded=0;verticalAlign=top;container=1;collapsible=0;recursiveResize=0;" vertex="1" parent="Lps9gQ7iExdD5h6dAtAG-41">
          <mxGeometry x="30" y="25" width="70" height="45" as="geometry" />
        </mxCell>
        <mxCell id="Lps9gQ7iExdD5h6dAtAG-43" value="Admin&lt;br&gt;Office" style="ellipse;whiteSpace=wrap;html=1;rounded=0;verticalAlign=top;container=1;collapsible=0;recursiveResize=0;" vertex="1" parent="Lps9gQ7iExdD5h6dAtAG-41">
          <mxGeometry x="110" y="40" width="50" height="37.5" as="geometry" />
        </mxCell>
        <mxCell id="Lps9gQ7iExdD5h6dAtAG-44" value="Digital Environment" style="ellipse;whiteSpace=wrap;html=1;rounded=0;verticalAlign=top;container=1;collapsible=0;recursiveResize=0;" vertex="1" parent="Lps9gQ7iExdD5h6dAtAG-41">
          <mxGeometry x="20" y="80" width="70" height="50" as="geometry" />
        </mxCell>
        <mxCell id="Lps9gQ7iExdD5h6dAtAG-74" value="Support Staff" style="ellipse;whiteSpace=wrap;html=1;rounded=0;verticalAlign=top;container=1;collapsible=0;recursiveResize=0;" vertex="1" parent="Lps9gQ7iExdD5h6dAtAG-41">
          <mxGeometry x="100" y="90" width="60" height="45" as="geometry" />
        </mxCell>
        <mxCell id="Lps9gQ7iExdD5h6dAtAG-20" value="Whānau" style="ellipse;whiteSpace=wrap;html=1;rounded=0;verticalAlign=top;container=1;collapsible=0;recursiveResize=0;" vertex="1" parent="A8SzTBLCwIyWwOwGxgO3-1">
          <mxGeometry x="380" y="230" width="120" height="80" as="geometry" />
        </mxCell>
        <mxCell id="Lps9gQ7iExdD5h6dAtAG-19" value="Family" style="ellipse;whiteSpace=wrap;html=1;rounded=0;verticalAlign=top;container=1;collapsible=0;recursiveResize=0;" vertex="1" parent="Lps9gQ7iExdD5h6dAtAG-20">
          <mxGeometry x="30" y="20" width="60" height="40" as="geometry" />
        </mxCell>
        <mxCell id="Lps9gQ7iExdD5h6dAtAG-9" value="School" style="ellipse;whiteSpace=wrap;html=1;rounded=0;verticalAlign=top;collapsible=0;container=1;recursiveResize=0;" vertex="1" parent="A8SzTBLCwIyWwOwGxgO3-1">
          <mxGeometry x="120" y="480" width="180" height="180" as="geometry" />
        </mxCell>
        <mxCell id="Lps9gQ7iExdD5h6dAtAG-11" value="Physical Classroom" style="ellipse;whiteSpace=wrap;html=1;rounded=0;verticalAlign=top;container=1;collapsible=0;recursiveResize=0;" vertex="1" parent="Lps9gQ7iExdD5h6dAtAG-9">
          <mxGeometry x="70" y="20" width="70" height="50" as="geometry" />
        </mxCell>
        <mxCell id="Lps9gQ7iExdD5h6dAtAG-8" value="Admin&lt;br&gt;Office" style="ellipse;whiteSpace=wrap;html=1;rounded=0;verticalAlign=top;container=1;collapsible=0;recursiveResize=0;" vertex="1" parent="Lps9gQ7iExdD5h6dAtAG-9">
          <mxGeometry x="10" y="50" width="60" height="45" as="geometry" />
        </mxCell>
        <mxCell id="Lps9gQ7iExdD5h6dAtAG-26" value="Digital Environment" style="ellipse;whiteSpace=wrap;html=1;rounded=0;verticalAlign=top;container=1;collapsible=0;recursiveResize=0;" vertex="1" parent="Lps9gQ7iExdD5h6dAtAG-9">
          <mxGeometry x="80" y="80" width="80" height="50" as="geometry" />
        </mxCell>
        <mxCell id="Lps9gQ7iExdD5h6dAtAG-73" value="Support Staff" style="ellipse;whiteSpace=wrap;html=1;rounded=0;verticalAlign=top;container=1;collapsible=0;recursiveResize=0;" vertex="1" parent="Lps9gQ7iExdD5h6dAtAG-9">
          <mxGeometry x="20" y="105" width="60" height="45" as="geometry" />
        </mxCell>
        <mxCell id="Lps9gQ7iExdD5h6dAtAG-24" style="edgeStyle=none;rounded=0;orthogonalLoop=1;jettySize=auto;html=1;entryX=1;entryY=1;entryDx=0;entryDy=0;dashed=1;" edge="1" parent="A8SzTBLCwIyWwOwGxgO3-1" source="Lps9gQ7iExdD5h6dAtAG-1" target="Lps9gQ7iExdD5h6dAtAG-9">
          <mxGeometry relative="1" as="geometry" />
        </mxCell>
        <mxCell id="Lps9gQ7iExdD5h6dAtAG-45" style="edgeStyle=none;rounded=0;orthogonalLoop=1;jettySize=auto;html=1;entryX=0;entryY=1;entryDx=0;entryDy=0;dashed=1;" edge="1" parent="A8SzTBLCwIyWwOwGxgO3-1" source="Lps9gQ7iExdD5h6dAtAG-1" target="Lps9gQ7iExdD5h6dAtAG-41">
          <mxGeometry relative="1" as="geometry" />
        </mxCell>
        <mxCell id="Lps9gQ7iExdD5h6dAtAG-1" value="&lt;font style=&quot;font-size: 12px&quot;&gt;Part time Employee&lt;br style=&quot;font-size: 12px&quot;&gt;&lt;/font&gt;" style="shape=image;html=1;verticalAlign=top;verticalLabelPosition=bottom;labelBackgroundColor=none;imageAspect=0;aspect=fixed;image=https://cdn0.iconfinder.com/data/icons/elasto-online-store/26/00-ELASTOFONT-STORE-READY_user-128.png;shadow=0;strokeColor=#4D4D4D;strokeWidth=2;fillColor=none;fontSize=12;fontColor=#000000;align=center;" vertex="1" parent="A8SzTBLCwIyWwOwGxgO3-1">
          <mxGeometry x="370" y="650" width="20" height="20" as="geometry" />
        </mxCell>
        <mxCell id="Lps9gQ7iExdD5h6dAtAG-53" style="edgeStyle=none;rounded=0;orthogonalLoop=1;jettySize=auto;html=1;entryX=0.5;entryY=0;entryDx=0;entryDy=0;dashed=1;" edge="1" parent="A8SzTBLCwIyWwOwGxgO3-1" source="Lps9gQ7iExdD5h6dAtAG-2" target="Lps9gQ7iExdD5h6dAtAG-41">
          <mxGeometry relative="1" as="geometry" />
        </mxCell>
        <mxCell id="Lps9gQ7iExdD5h6dAtAG-2" value="&lt;font style=&quot;font-size: 12px&quot;&gt;Gig worker&lt;br style=&quot;font-size: 12px&quot;&gt;&lt;/font&gt;" style="shape=image;html=1;verticalAlign=top;verticalLabelPosition=bottom;labelBackgroundColor=none;imageAspect=0;aspect=fixed;image=https://cdn0.iconfinder.com/data/icons/elasto-online-store/26/00-ELASTOFONT-STORE-READY_user-128.png;shadow=0;strokeColor=#4D4D4D;strokeWidth=2;fillColor=none;fontSize=12;fontColor=#000000;align=center;" vertex="1" parent="A8SzTBLCwIyWwOwGxgO3-1">
          <mxGeometry x="490" y="370" width="20" height="20" as="geometry" />
        </mxCell>
        <mxCell id="Lps9gQ7iExdD5h6dAtAG-25" value="may &lt;br&gt;use" style="edgeStyle=none;rounded=0;orthogonalLoop=1;jettySize=auto;html=1;entryX=1;entryY=0.5;entryDx=0;entryDy=0;dashed=1;" edge="1" parent="A8SzTBLCwIyWwOwGxgO3-1" source="Lps9gQ7iExdD5h6dAtAG-3" target="Lps9gQ7iExdD5h6dAtAG-11">
          <mxGeometry relative="1" as="geometry" />
        </mxCell>
        <mxCell id="Lps9gQ7iExdD5h6dAtAG-28" value="uses" style="edgeStyle=none;rounded=0;orthogonalLoop=1;jettySize=auto;html=1;entryX=1;entryY=0.5;entryDx=0;entryDy=0;" edge="1" parent="A8SzTBLCwIyWwOwGxgO3-1" source="Lps9gQ7iExdD5h6dAtAG-3" target="Lps9gQ7iExdD5h6dAtAG-26">
          <mxGeometry relative="1" as="geometry" />
        </mxCell>
        <mxCell id="Lps9gQ7iExdD5h6dAtAG-46" value="may use" style="edgeStyle=none;rounded=0;orthogonalLoop=1;jettySize=auto;html=1;entryX=0;entryY=0.5;entryDx=0;entryDy=0;" edge="1" parent="A8SzTBLCwIyWwOwGxgO3-1" source="Lps9gQ7iExdD5h6dAtAG-3" target="Lps9gQ7iExdD5h6dAtAG-44">
          <mxGeometry relative="1" as="geometry" />
        </mxCell>
        <mxCell id="Lps9gQ7iExdD5h6dAtAG-47" value="may use" style="edgeStyle=none;rounded=0;orthogonalLoop=1;jettySize=auto;html=1;entryX=0;entryY=0.5;entryDx=0;entryDy=0;dashed=1;" edge="1" parent="A8SzTBLCwIyWwOwGxgO3-1" source="Lps9gQ7iExdD5h6dAtAG-3" target="Lps9gQ7iExdD5h6dAtAG-42">
          <mxGeometry relative="1" as="geometry" />
        </mxCell>
        <mxCell id="Lps9gQ7iExdD5h6dAtAG-54" value="belongs to" style="edgeStyle=none;rounded=0;orthogonalLoop=1;jettySize=auto;html=1;entryX=0.5;entryY=1;entryDx=0;entryDy=0;" edge="1" parent="A8SzTBLCwIyWwOwGxgO3-1" source="Lps9gQ7iExdD5h6dAtAG-3" target="Lps9gQ7iExdD5h6dAtAG-19">
          <mxGeometry x="0.4379" y="-6" relative="1" as="geometry">
            <mxPoint y="1" as="offset" />
          </mxGeometry>
        </mxCell>
        <mxCell id="Lps9gQ7iExdD5h6dAtAG-55" value="may be" style="edgeStyle=none;rounded=0;orthogonalLoop=1;jettySize=auto;html=1;entryX=0.25;entryY=1;entryDx=0;entryDy=0;" edge="1" parent="A8SzTBLCwIyWwOwGxgO3-1" source="Lps9gQ7iExdD5h6dAtAG-3" target="Lps9gQ7iExdD5h6dAtAG-2">
          <mxGeometry x="-0.5773" y="1" relative="1" as="geometry">
            <mxPoint as="offset" />
          </mxGeometry>
        </mxCell>
        <mxCell id="Lps9gQ7iExdD5h6dAtAG-3" value="&lt;font style=&quot;font-size: 12px&quot;&gt;Learner&lt;br style=&quot;font-size: 12px&quot;&gt;&lt;/font&gt;" style="shape=image;html=1;verticalAlign=top;verticalLabelPosition=bottom;labelBackgroundColor=none;imageAspect=0;aspect=fixed;image=https://cdn0.iconfinder.com/data/icons/elasto-online-store/26/00-ELASTOFONT-STORE-READY_user-128.png;shadow=0;strokeColor=#4D4D4D;strokeWidth=2;fillColor=none;fontSize=12;fontColor=#000000;align=center;" vertex="1" parent="A8SzTBLCwIyWwOwGxgO3-1">
          <mxGeometry x="370" y="570" width="20" height="20" as="geometry" />
        </mxCell>
        <mxCell id="Lps9gQ7iExdD5h6dAtAG-16" style="rounded=0;orthogonalLoop=1;jettySize=auto;html=1;entryX=1;entryY=0;entryDx=0;entryDy=0;dashed=1;" edge="1" parent="A8SzTBLCwIyWwOwGxgO3-1" source="Lps9gQ7iExdD5h6dAtAG-10" target="Lps9gQ7iExdD5h6dAtAG-11">
          <mxGeometry relative="1" as="geometry" />
        </mxCell>
        <mxCell id="Lps9gQ7iExdD5h6dAtAG-18" value="may be a&amp;nbsp;&lt;br&gt;grandmother" style="edgeStyle=none;rounded=0;orthogonalLoop=1;jettySize=auto;html=1;entryX=0;entryY=1;entryDx=0;entryDy=0;dashed=1;" edge="1" parent="A8SzTBLCwIyWwOwGxgO3-1" source="Lps9gQ7iExdD5h6dAtAG-10" target="Lps9gQ7iExdD5h6dAtAG-20">
          <mxGeometry relative="1" as="geometry">
            <mxPoint x="220" y="860" as="targetPoint" />
          </mxGeometry>
        </mxCell>
        <mxCell id="Lps9gQ7iExdD5h6dAtAG-52" value="works &lt;br&gt;sometimes at" style="edgeStyle=none;rounded=0;orthogonalLoop=1;jettySize=auto;html=1;entryX=0;entryY=0;entryDx=0;entryDy=0;dashed=1;labelBackgroundColor=none;" edge="1" parent="A8SzTBLCwIyWwOwGxgO3-1" source="Lps9gQ7iExdD5h6dAtAG-10" target="Lps9gQ7iExdD5h6dAtAG-42">
          <mxGeometry x="0.5343" y="20" relative="1" as="geometry">
            <mxPoint as="offset" />
          </mxGeometry>
        </mxCell>
        <mxCell id="Lps9gQ7iExdD5h6dAtAG-10" value="&lt;font style=&quot;font-size: 12px&quot;&gt;Relief Teacher&lt;br style=&quot;font-size: 12px&quot;&gt;&lt;/font&gt;" style="shape=image;html=1;verticalAlign=top;verticalLabelPosition=bottom;labelBackgroundColor=none;imageAspect=0;aspect=fixed;image=https://cdn0.iconfinder.com/data/icons/elasto-online-store/26/00-ELASTOFONT-STORE-READY_user-128.png;shadow=0;strokeColor=#4D4D4D;strokeWidth=2;fillColor=none;fontSize=12;fontColor=#000000;align=center;" vertex="1" parent="A8SzTBLCwIyWwOwGxgO3-1">
          <mxGeometry x="370" y="370" width="20" height="20" as="geometry" />
        </mxCell>
        <mxCell id="Lps9gQ7iExdD5h6dAtAG-22" value="may be a&lt;br&gt;parent or&amp;nbsp;&lt;br&gt;grandparent" style="edgeStyle=none;rounded=0;orthogonalLoop=1;jettySize=auto;html=1;entryX=0;entryY=0.5;entryDx=0;entryDy=0;dashed=1;exitX=1;exitY=0.5;exitDx=0;exitDy=0;" edge="1" parent="A8SzTBLCwIyWwOwGxgO3-1" source="Lps9gQ7iExdD5h6dAtAG-0" target="Lps9gQ7iExdD5h6dAtAG-20">
          <mxGeometry relative="1" as="geometry">
            <mxPoint x="160" y="690" as="sourcePoint" />
            <Array as="points" />
          </mxGeometry>
        </mxCell>
        <mxCell id="Lps9gQ7iExdD5h6dAtAG-23" value="employed" style="edgeStyle=none;rounded=0;orthogonalLoop=1;jettySize=auto;html=1;entryX=0.5;entryY=0;entryDx=0;entryDy=0;" edge="1" parent="A8SzTBLCwIyWwOwGxgO3-1" source="Lps9gQ7iExdD5h6dAtAG-0" target="Lps9gQ7iExdD5h6dAtAG-8">
          <mxGeometry relative="1" as="geometry" />
        </mxCell>
        <mxCell id="Lps9gQ7iExdD5h6dAtAG-0" value="&lt;font style=&quot;font-size: 12px&quot;&gt;Admin&lt;br style=&quot;font-size: 12px&quot;&gt;&lt;/font&gt;" style="shape=image;html=1;verticalAlign=top;verticalLabelPosition=bottom;labelBackgroundColor=none;imageAspect=0;aspect=fixed;image=https://cdn0.iconfinder.com/data/icons/elasto-online-store/26/00-ELASTOFONT-STORE-READY_user-128.png;shadow=0;strokeColor=#4D4D4D;strokeWidth=2;fillColor=none;fontSize=12;fontColor=#000000;align=center;" vertex="1" parent="A8SzTBLCwIyWwOwGxgO3-1">
          <mxGeometry x="130" y="370" width="20" height="20" as="geometry" />
        </mxCell>
        <mxCell id="Lps9gQ7iExdD5h6dAtAG-15" value="employed" style="rounded=0;orthogonalLoop=1;jettySize=auto;html=1;" edge="1" parent="A8SzTBLCwIyWwOwGxgO3-1" source="Lps9gQ7iExdD5h6dAtAG-6" target="Lps9gQ7iExdD5h6dAtAG-11">
          <mxGeometry relative="1" as="geometry" />
        </mxCell>
        <mxCell id="Lps9gQ7iExdD5h6dAtAG-21" value="may be a&lt;br&gt;parent or&lt;br&gt;older siblig" style="edgeStyle=none;rounded=0;orthogonalLoop=1;jettySize=auto;html=1;dashed=1;entryX=0;entryY=0.5;entryDx=0;entryDy=0;" edge="1" parent="A8SzTBLCwIyWwOwGxgO3-1" source="Lps9gQ7iExdD5h6dAtAG-6" target="Lps9gQ7iExdD5h6dAtAG-19">
          <mxGeometry x="-0.4492" y="-19" relative="1" as="geometry">
            <mxPoint x="410" y="330" as="targetPoint" />
            <mxPoint as="offset" />
          </mxGeometry>
        </mxCell>
        <mxCell id="Lps9gQ7iExdD5h6dAtAG-6" value="&lt;font style=&quot;font-size: 12px&quot;&gt;Teacher&lt;br style=&quot;font-size: 12px&quot;&gt;&lt;/font&gt;" style="shape=image;html=1;verticalAlign=top;verticalLabelPosition=bottom;labelBackgroundColor=none;imageAspect=0;aspect=fixed;image=https://cdn0.iconfinder.com/data/icons/elasto-online-store/26/00-ELASTOFONT-STORE-READY_user-128.png;shadow=0;strokeColor=#4D4D4D;strokeWidth=2;fillColor=none;fontSize=12;fontColor=#000000;align=center;" vertex="1" parent="A8SzTBLCwIyWwOwGxgO3-1">
          <mxGeometry x="250" y="370" width="20" height="20" as="geometry" />
        </mxCell>
        <mxCell id="Lps9gQ7iExdD5h6dAtAG-48" style="edgeStyle=none;rounded=0;orthogonalLoop=1;jettySize=auto;html=1;exitX=0.5;exitY=1;exitDx=0;exitDy=0;dashed=1;" edge="1" parent="A8SzTBLCwIyWwOwGxgO3-1" source="Lps9gQ7iExdD5h6dAtAG-3" target="Lps9gQ7iExdD5h6dAtAG-3">
          <mxGeometry relative="1" as="geometry" />
        </mxCell>
        <mxCell id="Lps9gQ7iExdD5h6dAtAG-58" value="may be" style="edgeStyle=none;rounded=0;orthogonalLoop=1;jettySize=auto;html=1;entryX=1;entryY=0.5;entryDx=0;entryDy=0;dashed=1;" edge="1" parent="A8SzTBLCwIyWwOwGxgO3-1" source="Lps9gQ7iExdD5h6dAtAG-57" target="Lps9gQ7iExdD5h6dAtAG-2">
          <mxGeometry relative="1" as="geometry" />
        </mxCell>
        <mxCell id="Lps9gQ7iExdD5h6dAtAG-60" value="manages" style="edgeStyle=none;rounded=0;orthogonalLoop=1;jettySize=auto;html=1;entryX=1;entryY=0.5;entryDx=0;entryDy=0;" edge="1" parent="A8SzTBLCwIyWwOwGxgO3-1" source="Lps9gQ7iExdD5h6dAtAG-57" target="Lps9gQ7iExdD5h6dAtAG-19">
          <mxGeometry relative="1" as="geometry" />
        </mxCell>
        <mxCell id="Lps9gQ7iExdD5h6dAtAG-63" value="may help in&lt;br&gt;some capacity" style="edgeStyle=none;rounded=0;orthogonalLoop=1;jettySize=auto;html=1;entryX=1;entryY=0;entryDx=0;entryDy=0;dashed=1;" edge="1" parent="A8SzTBLCwIyWwOwGxgO3-1" source="Lps9gQ7iExdD5h6dAtAG-57" target="Lps9gQ7iExdD5h6dAtAG-41">
          <mxGeometry relative="1" as="geometry" />
        </mxCell>
        <mxCell id="Lps9gQ7iExdD5h6dAtAG-57" value="&lt;font style=&quot;font-size: 12px&quot;&gt;Parent&lt;br style=&quot;font-size: 12px&quot;&gt;&lt;/font&gt;" style="shape=image;html=1;verticalAlign=top;verticalLabelPosition=bottom;labelBackgroundColor=none;imageAspect=0;aspect=fixed;image=https://cdn0.iconfinder.com/data/icons/elasto-online-store/26/00-ELASTOFONT-STORE-READY_user-128.png;shadow=0;strokeColor=#4D4D4D;strokeWidth=2;fillColor=none;fontSize=12;fontColor=#000000;align=center;" vertex="1" parent="A8SzTBLCwIyWwOwGxgO3-1">
          <mxGeometry x="610" y="370" width="20" height="20" as="geometry" />
        </mxCell>
        <mxCell id="Lps9gQ7iExdD5h6dAtAG-70" value="Title/Diagram" parent="A8SzTBLCwIyWwOwGxgO3-0" />
      </root>
    </mxGraphModel>
  </diagram>
</mxfile>
